<svg width="10" height="10" viewBox="0 0 10 10" fill="none" xmlns="http://www.w3.org/2000/svg">
<g id="Iconly/Bold/Location">
<g id="Location">
<path id="Location_2" fill-rule="evenodd" clip-rule="evenodd" d="M1.45837 4.29906C1.45837 2.38245 3.05999 0.833328 4.99731 0.833328C6.94009 0.833328 8.54171 2.38245 8.54171 4.29906C8.54171 5.26487 8.19046 6.16151 7.61233 6.92148C6.97454 7.75979 6.18844 8.49019 5.3036 9.06351C5.10109 9.196 4.91832 9.206 4.69606 9.06351C3.80618 8.49019 3.02008 7.75979 2.38775 6.92148C1.8092 6.16151 1.45837 5.26487 1.45837 4.29906ZM3.83097 4.40697C3.83097 5.04904 4.3549 5.55402 4.99731 5.55402C5.64014 5.55402 6.16911 5.04904 6.16911 4.40697C6.16911 3.7699 5.64014 3.24034 4.99731 3.24034C4.3549 3.24034 3.83097 3.7699 3.83097 4.40697Z" fill="#ADADAD"/>
</g>
</g>
</svg>
