<svg width="10" height="11" viewBox="0 0 10 11" fill="none" xmlns="http://www.w3.org/2000/svg">
<g id="Iconly/Bold/Star">
<g id="Star">
<path id="Star_2" d="M7.46599 6.40078C7.35808 6.50536 7.30849 6.65661 7.33308 6.80494L7.7035 8.85494C7.73475 9.02869 7.66141 9.20453 7.51599 9.30494C7.37349 9.40911 7.18391 9.42161 7.02849 9.33828L5.18308 8.37578C5.11891 8.34161 5.04766 8.32328 4.97474 8.32119H4.86183C4.82266 8.32703 4.78433 8.33953 4.74933 8.35869L2.90349 9.32578C2.81224 9.37161 2.70891 9.38786 2.60766 9.37161C2.36099 9.32494 2.19641 9.08994 2.23683 8.84203L2.60766 6.79203C2.63224 6.64244 2.58266 6.49036 2.47474 6.38411L0.970161 4.92578C0.844328 4.80369 0.800578 4.62036 0.858078 4.45494C0.913911 4.28994 1.05641 4.16953 1.22849 4.14244L3.29933 3.84203C3.45683 3.82578 3.59516 3.72994 3.66599 3.58828L4.57849 1.71744C4.60016 1.67578 4.62808 1.63744 4.66183 1.60494L4.69933 1.57578C4.71891 1.55411 4.74141 1.53619 4.76641 1.52161L4.81183 1.50494L4.88266 1.47578H5.05808C5.21474 1.49203 5.35266 1.58578 5.42474 1.72578L6.34933 3.58828C6.41599 3.72453 6.54558 3.81911 6.69516 3.84203L8.76599 4.14244C8.94099 4.16744 9.08724 4.28828 9.14516 4.45494C9.19974 4.62203 9.15266 4.80536 9.02433 4.92578L7.46599 6.40078Z" fill="#199A8E"/>
</g>
</g>
</svg>
